<svg xmlns="http://www.w3.org/2000/svg" viewBox="0 0 320 360"><g transform="translate(82 20) scale(1.25)"><path d="M19 92c19-17 42-26 72-25 8 0 14 4 18 10-22-3-45 3-67 18-8 6-16 8-23 7-6-1-8-5-7-10Z" fill="#006A3D"/><g fill="#22A35A" stroke="#fff" stroke-width="3"><path d="M28 73 48 58l17 10-20 15Z"/><path d="m48 58 18-13 17 11-18 12Z"/></g><path d="M64 18c-15 0-27 12-27 27 0 21 27 45 27 45s27-24 27-45c0-15-12-27-27-27Z" fill="#E10600" stroke="#fff" stroke-width="4"/><circle cx="64" cy="45" r="10" fill="#fff"/></g><text x="160" y="245" text-anchor="middle" font-family="Arial,sans-serif" font-size="70" font-weight="800" fill="#006A3D">Land<tspan fill="#22A35A">BD</tspan></text><text x="160" y="295" text-anchor="middle" font-family="Noto Sans Bengali,Arial,sans-serif" font-size="28" font-weight="600" fill="#1F2937">সহজ জমির হিসাব</text><rect x="95" y="320" width="130" height="6" rx="3" fill="#E10600"/></svg>