<svg xmlns="http://www.w3.org/2000/svg" viewBox="0 0 1200 630"><rect width="1200" height="630" fill="#F7F9F8"/><circle cx="1080" cy="70" r="240" fill="#D9F2E3"/><path d="M80 480c240-180 570-220 1030-100-330 10-610 100-840 250-90 58-160 8-190-150Z" fill="#006A3D" opacity=".09"/><g transform="translate(90 125) scale(2.4)"><path d="M19 92c19-17 42-26 72-25 8 0 14 4 18 10-22-3-45 3-67 18-8 6-16 8-23 7-6-1-8-5-7-10 1-1 3-1 7 0Z" fill="#006A3D"/><g fill="#22A35A" stroke="#fff" stroke-width="3"><path d="M28 73 48 58l17 10-20 15Z"/><path d="m48 58 18-13 17 11-18 12Z"/></g><path d="M64 18c-15 0-27 12-27 27 0 21 27 45 27 45s27-24 27-45c0-15-12-27-27-27Z" fill="#E10600" stroke="#fff" stroke-width="4"/><circle cx="64" cy="45" r="10" fill="#fff"/></g><text x="420" y="285" font-family="Arial,sans-serif" font-size="110" font-weight="800" fill="#006A3D">Land<tspan fill="#22A35A">BD</tspan></text><text x="425" y="355" font-family="Arial,sans-serif" font-size="38" font-weight="600" fill="#33423A">Bangladesh land information &amp; calculation</text><rect x="425" y="390" width="330" height="8" rx="4" fill="#E10600"/></svg>